name ./resultDataOpenSim/trcMotMarkerGrf/sub06/grf-04-03.mot
datacolumns 19
datarows 22
range 0.50800000 0.59200000
endheader

                time	     ground_force_vx	     ground_force_vy	     ground_force_vz	     ground_force_px	     ground_force_py	     ground_force_pz	   l_ground_force_vx	   l_ground_force_vy	   l_ground_force_vz	   l_ground_force_px	   l_ground_force_py	   l_ground_force_pz	     ground_torque_x	     ground_torque_y	     ground_torque_z	   l_ground_torque_x	   l_ground_torque_y	   l_ground_torque_z	
          0.50800000	         69.77707689	        504.99724079	        -40.12409415	         -0.82608518	          0.00000000	          0.13626895	          0.00000000	          0.00000000	          0.00000000	          0.00000000	          0.00000000	          0.00000000	          0.00000000	          0.81546965	          0.00000000	          0.00000000	          0.00000000	          0.00000000	
          0.51200000	         74.12365094	        520.83136617	        -41.19192876	         -0.82533296	          0.00000000	          0.13616952	          0.00000000	          0.00000000	          0.00000000	          0.00000000	          0.00000000	          0.00000000	          0.00000000	          0.91140191	          0.00000000	          0.00000000	          0.00000000	          0.00000000	
          0.51600000	         78.97812286	        536.66492725	        -42.15414967	         -0.82464706	          0.00000000	          0.13603556	          0.00000000	          0.00000000	          0.00000000	          0.00000000	          0.00000000	          0.00000000	          0.00000000	          1.01027947	          0.00000000	          0.00000000	          0.00000000	          0.00000000	
          0.52000000	         84.22527240	        552.42249816	        -42.90317746	         -0.82401316	          0.00000000	          0.13586826	          0.00000000	          0.00000000	          0.00000000	          0.00000000	          0.00000000	          0.00000000	          0.00000000	          1.12013993	          0.00000000	          0.00000000	          0.00000000	          0.00000000	
          0.52400000	         89.72858153	        568.02224975	        -43.33790630	         -0.82342031	          0.00000000	          0.13567066	          0.00000000	          0.00000000	          0.00000000	          0.00000000	          0.00000000	          0.00000000	          0.00000000	          1.25047275	          0.00000000	          0.00000000	          0.00000000	          0.00000000	
          0.52800000	         95.36850347	        583.37537146	        -43.38901789	         -0.82285752	          0.00000000	          0.13544510	          0.00000000	          0.00000000	          0.00000000	          0.00000000	          0.00000000	          0.00000000	          0.00000000	          1.40886597	          0.00000000	          0.00000000	          0.00000000	          0.00000000	
          0.53200000	        101.07406548	        598.37678309	        -43.04261138	         -0.82231413	          0.00000000	          0.13519762	          0.00000000	          0.00000000	          0.00000000	          0.00000000	          0.00000000	          0.00000000	          0.00000000	          1.59820439	          0.00000000	          0.00000000	          0.00000000	          0.00000000	
          0.53600000	        106.83949337	        612.91279433	        -42.35137073	         -0.82179029	          0.00000000	          0.13493795	          0.00000000	          0.00000000	          0.00000000	          0.00000000	          0.00000000	          0.00000000	          0.00000000	          1.81512428	          0.00000000	          0.00000000	          0.00000000	          0.00000000	
          0.54000000	        112.72346701	        626.88087713	        -41.42542834	         -0.82130616	          0.00000000	          0.13467114	          0.00000000	          0.00000000	          0.00000000	          0.00000000	          0.00000000	          0.00000000	          0.00000000	          2.05000698	          0.00000000	          0.00000000	          0.00000000	          0.00000000	
          0.54400000	        118.83301557	        640.19917005	        -40.40792679	         -0.82088703	          0.00000000	          0.13440065	          0.00000000	          0.00000000	          0.00000000	          0.00000000	          0.00000000	          0.00000000	          0.00000000	          2.28837438	          0.00000000	          0.00000000	          0.00000000	          0.00000000	
          0.54800000	        125.29332056	        652.79298871	        -39.44715552	         -0.82054581	          0.00000000	          0.13413514	          0.00000000	          0.00000000	          0.00000000	          0.00000000	          0.00000000	          0.00000000	          0.00000000	          2.51327277	          0.00000000	          0.00000000	          0.00000000	          0.00000000	
          0.55200000	        132.21071556	        664.57582772	        -38.67195539	         -0.82028060	          0.00000000	          0.13388874	          0.00000000	          0.00000000	          0.00000000	          0.00000000	          0.00000000	          0.00000000	          0.00000000	          2.70810239	          0.00000000	          0.00000000	          0.00000000	          0.00000000	
          0.55600000	        139.64509850	        675.45083770	        -38.17176089	         -0.82007863	          0.00000000	          0.13367819	          0.00000000	          0.00000000	          0.00000000	          0.00000000	          0.00000000	          0.00000000	          0.00000000	          2.85930393	          0.00000000	          0.00000000	          0.00000000	          0.00000000	
          0.56000000	        147.60248287	        685.32948723	        -37.98310762	         -0.81992161	          0.00000000	          0.13351771	          0.00000000	          0.00000000	          0.00000000	          0.00000000	          0.00000000	          0.00000000	          0.00000000	          2.95834908	          0.00000000	          0.00000000	          0.00000000	          0.00000000	
          0.56400000	        156.04305140	        694.13959705	        -38.08604702	         -0.81979104	          0.00000000	          0.13341407	          0.00000000	          0.00000000	          0.00000000	          0.00000000	          0.00000000	          0.00000000	          0.00000000	          3.00263407	          0.00000000	          0.00000000	          0.00000000	          0.00000000	
          0.56800000	        164.89225625	        701.81365733	        -38.41277054	         -0.81967155	          0.00000000	          0.13336823	          0.00000000	          0.00000000	          0.00000000	          0.00000000	          0.00000000	          0.00000000	          0.00000000	          2.99514745	          0.00000000	          0.00000000	          0.00000000	          0.00000000	
          0.57200000	        174.04682474	        708.28426825	        -38.86710523	         -0.81955397	          0.00000000	          0.13337803	          0.00000000	          0.00000000	          0.00000000	          0.00000000	          0.00000000	          0.00000000	          0.00000000	          2.94311400	          0.00000000	          0.00000000	          0.00000000	          0.00000000	
          0.57600000	        183.37428504	        713.50146375	        -39.34921554	         -0.81943282	          0.00000000	          0.13343545	          0.00000000	          0.00000000	          0.00000000	          0.00000000	          0.00000000	          0.00000000	          0.00000000	          2.85609428	          0.00000000	          0.00000000	          0.00000000	          0.00000000	
          0.58000000	        192.70924143	        717.44596034	        -39.77727590	         -0.81929985	          0.00000000	          0.13352609	          0.00000000	          0.00000000	          0.00000000	          0.00000000	          0.00000000	          0.00000000	          0.00000000	          2.74412286	          0.00000000	          0.00000000	          0.00000000	          0.00000000	
          0.58400000	        201.85496538	        720.11921395	        -40.10092135	         -0.81914505	          0.00000000	          0.13363323	          0.00000000	          0.00000000	          0.00000000	          0.00000000	          0.00000000	          0.00000000	          0.00000000	          2.61634641	          0.00000000	          0.00000000	          0.00000000	          0.00000000	
          0.58800000	        210.59610987	        721.52869165	        -40.30601177	         -0.81895940	          0.00000000	          0.13374425	          0.00000000	          0.00000000	          0.00000000	          0.00000000	          0.00000000	          0.00000000	          0.00000000	          2.48034660	          0.00000000	          0.00000000	          0.00000000	          0.00000000	
          0.59200000	        218.71689103	        721.69054805	        -40.41011461	         -0.81872646	          0.00000000	          0.13385192	          0.00000000	          0.00000000	          0.00000000	          0.00000000	          0.00000000	          0.00000000	          0.00000000	          2.34205211	          0.00000000	          0.00000000	          0.00000000	          0.00000000	
